<svg id="visual" viewBox="0 0 900 600" width="900" height="600" xmlns="http://www.w3.org/2000/svg" xmlns:xlink="http://www.w3.org/1999/xlink" version="1.1"><path d="M0 336L13.7 326.8C27.3 317.7 54.7 299.3 82 287.2C109.3 275 136.7 269 163.8 271.5C191 274 218 285 245.2 297.8C272.3 310.7 299.7 325.3 327 318.3C354.3 311.3 381.7 282.7 409 273.3C436.3 264 463.7 274 491 290.7C518.3 307.3 545.7 330.7 573 328.7C600.3 326.7 627.7 299.3 654.8 292C682 284.7 709 297.3 736.2 308.7C763.3 320 790.7 330 818 324.7C845.3 319.3 872.7 298.7 886.3 288.3L900 278L900 0L886.3 0C872.7 0 845.3 0 818 0C790.7 0 763.3 0 736.2 0C709 0 682 0 654.8 0C627.7 0 600.3 0 573 0C545.7 0 518.3 0 491 0C463.7 0 436.3 0 409 0C381.7 0 354.3 0 327 0C299.7 0 272.3 0 245.2 0C218 0 191 0 163.8 0C136.7 0 109.3 0 82 0C54.7 0 27.3 0 13.7 0L0 0Z" fill="#0066FF" stroke-linecap="round" stroke-linejoin="miter"></path></svg>